STARTFONT 2.1
COMMENT Created by fdbbdf
FONT courier14bif
SIZE 14 78 78
FONTBOUNDINGBOX 12 17 0 -6
STARTPROPERTIES 4
Ownership "  Copyright (c) 1984 Adobe Systems, Inc.  allchars 75orig/CB16.bits  WIDTHERR 0 0  GUIDELINES -4 0 8 10 DONE  TOTAL BITMAP BYTES 3181  "
FONT_ASCENT 11
FONT_DESCENT 6
DEFAULT_CHAR 32
ENDPROPERTIES
CHARS 95
STARTCHAR sp
ENCODING -1 32
SWIDTH 0 0
DWIDTH 10 0
BBX 9 1 1 -1
BITMAP
0000
ENDCHAR
STARTCHAR !
ENCODING -1 33
SWIDTH 0 0
DWIDTH 10 0
BBX 9 11 1 -1
BITMAP
0c00
0c00
0c00
0c00
1800
1800
1800
1800
0000
3000
3000
ENDCHAR
STARTCHAR "
ENCODING -1 34
SWIDTH 0 0
DWIDTH 10 0
BBX 7 4 1 5
BITMAP
6600
6600
6600
4400
ENDCHAR
STARTCHAR #
ENCODING -1 35
SWIDTH 0 0
DWIDTH 10 0
BBX 9 14 1 -3
BITMAP
1b00
1b00
1b00
1b00
7f80
7f80
3600
3600
ff00
ff00
6c00
6c00
6c00
6c00
ENDCHAR
STARTCHAR $
ENCODING -1 36
SWIDTH 0 0
DWIDTH 10 0
BBX 9 14 1 -3
BITMAP
0c00
0c00
3f00
7f80
6180
7000
3c00
1e00
0700
c300
ff00
7e00
1800
1800
ENDCHAR
STARTCHAR %
ENCODING -1 37
SWIDTH 0 0
DWIDTH 10 0
BBX 9 11 1 -1
BITMAP
3800
6c00
4400
6d80
3f00
1c00
7e00
db00
1100
1b00
0e00
ENDCHAR
STARTCHAR &
ENCODING -1 38
SWIDTH 0 0
DWIDTH 10 0
BBX 9 9 1 -1
BITMAP
1c00
3e00
3600
1c00
3980
7d80
cf00
ff00
7b00
ENDCHAR
STARTCHAR '
ENCODING -1 39
SWIDTH 0 0
DWIDTH 10 0
BBX 6 4 1 5
BITMAP
0c00
0c00
0400
1800
ENDCHAR
STARTCHAR (
ENCODING -1 40
SWIDTH 0 0
DWIDTH 10 0
BBX 9 14 1 -4
BITMAP
0300
0600
0600
0c00
0c00
1800
1800
1800
1800
1800
1800
1800
0c00
0c00
ENDCHAR
STARTCHAR )
ENCODING -1 41
SWIDTH 0 0
DWIDTH 10 0
BBX 9 14 1 -4
BITMAP
0c00
0c00
0600
0600
0600
0600
0600
0600
0c00
0c00
0c00
1800
1800
3000
ENDCHAR
STARTCHAR *
ENCODING -1 42
SWIDTH 0 0
DWIDTH 10 0
BBX 9 11 1 -1
BITMAP
1800
1800
db00
ff00
3c00
3c00
6600
6600
0000
0000
0000
ENDCHAR
STARTCHAR +
ENCODING -1 43
SWIDTH 0 0
DWIDTH 10 0
BBX 9 10 1 -1
BITMAP
0000
1800
1800
1800
ff00
ff00
1800
1800
1800
0000
ENDCHAR
STARTCHAR ,
ENCODING -1 44
SWIDTH 0 0
DWIDTH 10 0
BBX 9 4 1 -2
BITMAP
0c00
0c00
0400
1800
ENDCHAR
STARTCHAR -
ENCODING -1 45
SWIDTH 0 0
DWIDTH 10 0
BBX 8 2 1 3
BITMAP
7f00
7f00
ENDCHAR
STARTCHAR .
ENCODING -1 46
SWIDTH 0 0
DWIDTH 10 0
BBX 9 2 1 -1
BITMAP
1800
1800
ENDCHAR
STARTCHAR /
ENCODING -1 47
SWIDTH 0 0
DWIDTH 10 0
BBX 9 14 1 -3
BITMAP
0180
0180
0300
0300
0600
0600
0c00
0c00
1800
1800
3000
3000
6000
6000
ENDCHAR
STARTCHAR 0
ENCODING -1 48
SWIDTH 0 0
DWIDTH 10 0
BBX 9 10 1 -1
BITMAP
0f00
1f80
3980
3180
6180
6180
6300
6700
7e00
3c00
ENDCHAR
STARTCHAR 1
ENCODING -1 49
SWIDTH 0 0
DWIDTH 10 0
BBX 9 10 1 -1
BITMAP
0c00
3c00
3c00
0c00
0c00
1800
1800
1800
ff00
ff00
ENDCHAR
STARTCHAR 2
ENCODING -1 50
SWIDTH 0 0
DWIDTH 10 0
BBX 9 10 1 -1
BITMAP
1f00
3f80
7180
0180
0380
0f00
3c00
7000
ff00
ff00
ENDCHAR
STARTCHAR 3
ENCODING -1 51
SWIDTH 0 0
DWIDTH 10 0
BBX 9 10 1 -1
BITMAP
1e00
7f00
6300
0300
1e00
1f00
0300
c700
fe00
7c00
ENDCHAR
STARTCHAR 4
ENCODING -1 52
SWIDTH 0 0
DWIDTH 10 0
BBX 9 10 1 -1
BITMAP
0700
0f00
1b00
3600
3600
6600
ff00
ff00
0c00
0c00
ENDCHAR
STARTCHAR 5
ENCODING -1 53
SWIDTH 0 0
DWIDTH 10 0
BBX 9 10 1 -1
BITMAP
3f00
3f00
3000
7e00
7f00
0300
0300
c700
fe00
7c00
ENDCHAR
STARTCHAR 6
ENCODING -1 54
SWIDTH 0 0
DWIDTH 10 0
BBX 8 10 1 -1
BITMAP
0f00
3f00
3000
6e00
7f00
7300
6300
6700
7e00
3c00
ENDCHAR
STARTCHAR 7
ENCODING -1 55
SWIDTH 0 0
DWIDTH 10 0
BBX 9 10 1 -1
BITMAP
7f80
7f80
6300
0700
0e00
0c00
1c00
3800
3000
7000
ENDCHAR
STARTCHAR 8
ENCODING -1 56
SWIDTH 0 0
DWIDTH 10 0
BBX 9 10 1 -1
BITMAP
1e00
3f00
6300
6300
7e00
7f00
c300
c300
fe00
7c00
ENDCHAR
STARTCHAR 9
ENCODING -1 57
SWIDTH 0 0
DWIDTH 10 0
BBX 9 10 1 -1
BITMAP
1e00
3f00
7300
6300
6700
7f00
3b00
0600
7e00
7800
ENDCHAR
STARTCHAR :
ENCODING -1 58
SWIDTH 0 0
DWIDTH 10 0
BBX 9 7 1 -1
BITMAP
0c00
0c00
0000
0000
0000
1800
1800
ENDCHAR
STARTCHAR ;
ENCODING -1 59
SWIDTH 0 0
DWIDTH 10 0
BBX 9 8 1 -2
BITMAP
0c00
0c00
0000
0000
1800
1800
0800
3000
ENDCHAR
STARTCHAR <
ENCODING -1 60
SWIDTH 0 0
DWIDTH 10 0
BBX 9 10 1 -1
BITMAP
0080
0380
0f80
3e00
f800
f800
3e00
0f80
0380
0080
ENDCHAR
STARTCHAR =
ENCODING -1 61
SWIDTH 0 0
DWIDTH 10 0
BBX 9 6 1 1
BITMAP
ff00
ff00
0000
0000
ff00
ff00
ENDCHAR
STARTCHAR >
ENCODING -1 62
SWIDTH 0 0
DWIDTH 10 0
BBX 9 10 1 -1
BITMAP
8000
e000
f800
3e00
0f80
0f80
3e00
f800
e000
8000
ENDCHAR
STARTCHAR ?
ENCODING -1 63
SWIDTH 0 0
DWIDTH 10 0
BBX 9 10 1 -1
BITMAP
1e00
3f00
3300
3300
0700
0e00
1c00
0000
3800
3800
ENDCHAR
STARTCHAR @
ENCODING -1 64
SWIDTH 0 0
DWIDTH 10 0
BBX 9 11 1 -1
BITMAP
0e00
1b00
3100
2100
6f00
5a00
5200
5200
5e00
6000
3c00
ENDCHAR
STARTCHAR A
ENCODING -1 65
SWIDTH 0 0
DWIDTH 10 0
BBX 9 10 1 -1
BITMAP
3e00
3e00
1f00
1b00
3300
3f00
7f00
6300
f780
f780
ENDCHAR
STARTCHAR B
ENCODING -1 66
SWIDTH 0 0
DWIDTH 10 0
BBX 9 10 1 -1
BITMAP
7e00
7f00
3300
3300
7e00
7f00
6300
6300
ff00
fe00
ENDCHAR
STARTCHAR C
ENCODING -1 67
SWIDTH 0 0
DWIDTH 10 0
BBX 9 10 1 -1
BITMAP
1d80
3f80
7300
e300
c000
c000
c180
e380
7f00
3e00
ENDCHAR
STARTCHAR D
ENCODING -1 68
SWIDTH 0 0
DWIDTH 10 0
BBX 9 10 1 -1
BITMAP
7e00
7f00
3180
3180
3180
7180
6380
6700
fe00
fc00
ENDCHAR
STARTCHAR E
ENCODING -1 69
SWIDTH 0 0
DWIDTH 10 0
BBX 9 10 1 -1
BITMAP
7f80
7f80
3180
3580
7c00
7c00
6d80
6180
ff80
ff00
ENDCHAR
STARTCHAR F
ENCODING -1 70
SWIDTH 0 0
DWIDTH 10 0
BBX 9 10 1 -1
BITMAP
7f80
7f80
3180
3580
7c00
7c00
6c00
6000
f800
f800
ENDCHAR
STARTCHAR G
ENCODING -1 71
SWIDTH 0 0
DWIDTH 10 0
BBX 9 10 1 -1
BITMAP
1d80
3f80
7300
e300
c000
c780
c780
e300
7f00
3e00
ENDCHAR
STARTCHAR H
ENCODING -1 72
SWIDTH 0 0
DWIDTH 10 0
BBX 10 10 1 -1
BITMAP
7bc0
7bc0
3180
3180
3f80
7f00
6300
6300
f780
f780
ENDCHAR
STARTCHAR I
ENCODING -1 73
SWIDTH 0 0
DWIDTH 10 0
BBX 9 10 1 -1
BITMAP
7f80
7f80
0c00
0c00
0c00
1c00
1800
1800
ff00
ff00
ENDCHAR
STARTCHAR J
ENCODING -1 74
SWIDTH 0 0
DWIDTH 10 0
BBX 9 10 1 -1
BITMAP
3f80
3f80
0600
0600
0e00
0c00
cc00
cc00
fc00
7800
ENDCHAR
STARTCHAR K
ENCODING -1 75
SWIDTH 0 0
DWIDTH 10 0
BBX 10 10 1 -1
BITMAP
79c0
79c0
3380
3700
3e00
7e00
6700
6300
f380
f380
ENDCHAR
STARTCHAR L
ENCODING -1 76
SWIDTH 0 0
DWIDTH 10 0
BBX 9 10 1 -1
BITMAP
3e00
3e00
1800
1800
1800
3800
3180
3180
ff00
ff00
ENDCHAR
STARTCHAR M
ENCODING -1 77
SWIDTH 0 0
DWIDTH 10 0
BBX 10 10 1 -1
BITMAP
71c0
71c0
3180
3b80
3f80
7f00
6b00
6300
f780
f780
ENDCHAR
STARTCHAR N
ENCODING -1 78
SWIDTH 0 0
DWIDTH 10 0
BBX 10 10 1 -1
BITMAP
71c0
71c0
3980
3980
7d80
6f80
6700
6700
f300
f300
ENDCHAR
STARTCHAR O
ENCODING -1 79
SWIDTH 0 0
DWIDTH 10 0
BBX 9 10 1 -1
BITMAP
1e00
3f00
7380
e180
c180
c180
c380
e700
7e00
3c00
ENDCHAR
STARTCHAR P
ENCODING -1 80
SWIDTH 0 0
DWIDTH 10 0
BBX 9 10 1 -1
BITMAP
7f00
7f80
3180
3180
3380
7f00
7e00
6000
f800
f800
ENDCHAR
STARTCHAR Q
ENCODING -1 81
SWIDTH 0 0
DWIDTH 10 0
BBX 9 12 1 -3
BITMAP
1e00
3f00
7380
e180
c180
c180
c380
e700
7e00
3980
ff80
cf00
ENDCHAR
STARTCHAR R
ENCODING -1 82
SWIDTH 0 0
DWIDTH 10 0
BBX 9 10 1 -1
BITMAP
7f00
7f80
3180
3180
3380
7f00
7e00
6700
f380
f380
ENDCHAR
STARTCHAR S
ENCODING -1 83
SWIDTH 0 0
DWIDTH 10 0
BBX 9 10 1 -1
BITMAP
1d80
3f80
7380
6180
7e00
3f00
c300
e700
fe00
dc00
ENDCHAR
STARTCHAR T
ENCODING -1 84
SWIDTH 0 0
DWIDTH 10 0
BBX 9 10 1 -1
BITMAP
7f80
7f80
db00
db00
db00
3000
3000
3000
fc00
fc00
ENDCHAR
STARTCHAR U
ENCODING -1 85
SWIDTH 0 0
DWIDTH 10 0
BBX 9 10 1 -1
BITMAP
f780
f780
6300
6300
e700
c600
c600
ce00
fc00
7800
ENDCHAR
STARTCHAR V
ENCODING -1 86
SWIDTH 0 0
DWIDTH 10 0
BBX 9 10 1 -1
BITMAP
f780
f780
6300
6700
6600
6e00
6c00
7c00
3800
3000
ENDCHAR
STARTCHAR W
ENCODING -1 87
SWIDTH 0 0
DWIDTH 10 0
BBX 10 10 1 -1
BITMAP
f3c0
f3c0
6d80
6d80
6d80
7f00
7f00
3700
3600
3600
ENDCHAR
STARTCHAR X
ENCODING -1 88
SWIDTH 0 0
DWIDTH 10 0
BBX 10 10 1 -1
BITMAP
7bc0
7bc0
3180
1f00
0e00
1e00
3f00
6300
f780
f780
ENDCHAR
STARTCHAR Y
ENCODING -1 89
SWIDTH 0 0
DWIDTH 10 0
BBX 9 10 1 -1
BITMAP
f780
f780
6300
6600
7c00
3800
3000
3000
fc00
fc00
ENDCHAR
STARTCHAR Z
ENCODING -1 90
SWIDTH 0 0
DWIDTH 10 0
BBX 10 10 1 -1
BITMAP
3fc0
3fc0
7380
6700
0e00
1c00
3980
7380
ff00
ff00
ENDCHAR
STARTCHAR [
ENCODING -1 91
SWIDTH 0 0
DWIDTH 10 0
BBX 9 14 1 -4
BITMAP
0f00
0f00
0c00
0c00
1c00
1800
1800
1800
1800
3800
3000
3000
3c00
3c00
ENDCHAR
STARTCHAR \
ENCODING -1 92
SWIDTH 0 0
DWIDTH 10 0
BBX 9 14 1 -3
BITMAP
6000
6000
6000
3000
3000
3000
1800
1800
0c00
0c00
0c00
0600
0600
0600
ENDCHAR
STARTCHAR ]
ENCODING -1 93
SWIDTH 0 0
DWIDTH 10 0
BBX 9 14 1 -4
BITMAP
0f00
0f00
0300
0300
0700
0600
0600
0600
0600
0e00
0c00
0c00
3c00
3c00
ENDCHAR
STARTCHAR ^
ENCODING -1 94
SWIDTH 0 0
DWIDTH 10 0
BBX 9 7 1 3
BITMAP
1c00
1c00
3e00
3600
6300
6300
0000
ENDCHAR
STARTCHAR _
ENCODING -1 95
SWIDTH 0 0
DWIDTH 10 0
BBX 12 5 0 -6
BITMAP
0000
0000
0000
fff0
fff0
ENDCHAR
STARTCHAR `
ENCODING -1 96
SWIDTH 0 0
DWIDTH 10 0
BBX 9 4 1 5
BITMAP
0c00
0c00
0400
1800
ENDCHAR
STARTCHAR a
ENCODING -1 97
SWIDTH 0 0
DWIDTH 10 0
BBX 9 8 1 -1
BITMAP
3e00
3f00
0300
3f00
7e00
c600
ff00
7f00
ENDCHAR
STARTCHAR b
ENCODING -1 98
SWIDTH 0 0
DWIDTH 10 0
BBX 9 11 1 -1
BITMAP
7000
7000
3000
3e00
7f00
7380
6180
6180
7380
ff00
ee00
ENDCHAR
STARTCHAR c
ENCODING -1 99
SWIDTH 0 0
DWIDTH 10 0
BBX 9 8 1 -1
BITMAP
1d80
3f80
7300
6300
6000
6300
7f00
3e00
ENDCHAR
STARTCHAR d
ENCODING -1 100
SWIDTH 0 0
DWIDTH 10 0
BBX 9 11 1 -1
BITMAP
0380
0380
0180
3d80
7f80
e780
c300
c300
e700
7f80
3b80
ENDCHAR
STARTCHAR e
ENCODING -1 101
SWIDTH 0 0
DWIDTH 10 0
BBX 9 8 1 -1
BITMAP
1e00
7f00
6300
ff80
ff80
6000
7f00
3f00
ENDCHAR
STARTCHAR f
ENCODING -1 102
SWIDTH 0 0
DWIDTH 10 0
BBX 9 11 1 -1
BITMAP
0780
0f80
0c00
3f00
3f00
0c00
1800
1800
1800
7f00
7f00
ENDCHAR
STARTCHAR g
ENCODING -1 103
SWIDTH 0 0
DWIDTH 10 0
BBX 10 11 1 -4
BITMAP
3d80
7f80
e300
c300
c300
e700
7f00
3600
0600
fe00
fc00
ENDCHAR
STARTCHAR h
ENCODING -1 104
SWIDTH 0 0
DWIDTH 10 0
BBX 9 11 1 -1
BITMAP
7000
7000
3000
3700
3f80
3180
7180
6300
6300
f780
f780
ENDCHAR
STARTCHAR i
ENCODING -1 105
SWIDTH 0 0
DWIDTH 10 0
BBX 9 11 1 -1
BITMAP
0c00
0c00
0000
3c00
3c00
0c00
1800
1800
1800
ff00
ff00
ENDCHAR
STARTCHAR j
ENCODING -1 106
SWIDTH 0 0
DWIDTH 10 0
BBX 9 14 1 -4
BITMAP
0600
0600
0000
3e00
3e00
0600
0600
0e00
0c00
0c00
0c00
1c00
f800
f000
ENDCHAR
STARTCHAR k
ENCODING -1 107
SWIDTH 0 0
DWIDTH 10 0
BBX 9 11 1 -1
BITMAP
7000
7000
3000
3380
3780
7e00
7c00
6c00
6600
e780
e780
ENDCHAR
STARTCHAR l
ENCODING -1 108
SWIDTH 0 0
DWIDTH 10 0
BBX 9 11 1 -1
BITMAP
3c00
3c00
0c00
0c00
0c00
1800
1800
1800
1800
ff00
ff00
ENDCHAR
STARTCHAR m
ENCODING -1 109
SWIDTH 0 0
DWIDTH 10 0
BBX 10 8 1 -1
BITMAP
6d80
7fc0
36c0
36c0
6d80
6d80
edc0
edc0
ENDCHAR
STARTCHAR n
ENCODING -1 110
SWIDTH 0 0
DWIDTH 10 0
BBX 9 8 1 -1
BITMAP
7700
7f80
3180
3180
6300
6300
f780
f780
ENDCHAR
STARTCHAR o
ENCODING -1 111
SWIDTH 0 0
DWIDTH 10 0
BBX 9 8 1 -1
BITMAP
3e00
7f00
e300
c300
c300
c700
fe00
7c00
ENDCHAR
STARTCHAR p
ENCODING -1 112
SWIDTH 0 0
DWIDTH 10 0
BBX 9 11 1 -4
BITMAP
7600
7f00
3b80
3180
3180
3b80
7f00
6e00
6000
f800
f800
ENDCHAR
STARTCHAR q
ENCODING -1 113
SWIDTH 0 0
DWIDTH 10 0
BBX 9 11 1 -4
BITMAP
1d80
3f80
7700
6300
6300
7700
3e00
1e00
0600
1f00
1f00
ENDCHAR
STARTCHAR r
ENCODING -1 114
SWIDTH 0 0
DWIDTH 10 0
BBX 9 8 1 -1
BITMAP
7700
7f80
1980
1800
3000
3000
fe00
fe00
ENDCHAR
STARTCHAR s
ENCODING -1 115
SWIDTH 0 0
DWIDTH 10 0
BBX 9 8 1 -1
BITMAP
3f00
7f00
6300
7c00
3e00
c600
fe00
fc00
ENDCHAR
STARTCHAR t
ENCODING -1 116
SWIDTH 0 0
DWIDTH 10 0
BBX 9 11 1 -1
BITMAP
1800
1800
1800
7f80
7f80
1800
3000
3000
3380
3f80
1e00
ENDCHAR
STARTCHAR u
ENCODING -1 117
SWIDTH 0 0
DWIDTH 10 0
BBX 9 8 1 -1
BITMAP
e700
e700
6300
6300
c600
c600
ff00
7b00
ENDCHAR
STARTCHAR v
ENCODING -1 118
SWIDTH 0 0
DWIDTH 10 0
BBX 9 8 1 -1
BITMAP
f780
f780
6300
6600
6e00
7c00
3800
3000
ENDCHAR
STARTCHAR w
ENCODING -1 119
SWIDTH 0 0
DWIDTH 10 0
BBX 10 8 1 -1
BITMAP
f3c0
f3c0
6d80
6d80
6d80
7f00
7e00
6c00
ENDCHAR
STARTCHAR x
ENCODING -1 120
SWIDTH 0 0
DWIDTH 10 0
BBX 10 8 1 -1
BITMAP
7bc0
7bc0
1f00
0e00
1c00
3e00
f780
f780
ENDCHAR
STARTCHAR y
ENCODING -1 121
SWIDTH 0 0
DWIDTH 10 0
BBX 10 11 1 -4
BITMAP
7bc0
7bc0
3180
3300
3700
3e00
1c00
3800
3000
f800
f800
ENDCHAR
STARTCHAR z
ENCODING -1 122
SWIDTH 0 0
DWIDTH 10 0
BBX 9 8 1 -1
BITMAP
3f80
7f80
6700
0e00
3800
7300
ff00
fe00
ENDCHAR
STARTCHAR {
ENCODING -1 123
SWIDTH 0 0
DWIDTH 10 0
BBX 9 15 1 -4
BITMAP
0300
0600
0600
0600
0c00
0c00
0c00
3800
1800
1800
1800
3000
3000
3000
1800
ENDCHAR
STARTCHAR |
ENCODING -1 124
SWIDTH 0 0
DWIDTH 10 0
BBX 7 14 1 -4
BITMAP
0600
0600
0600
0600
0e00
0c00
0c00
0c00
0c00
1c00
1800
1800
1800
1800
ENDCHAR
STARTCHAR }
ENCODING -1 125
SWIDTH 0 0
DWIDTH 10 0
BBX 9 15 1 -4
BITMAP
0c00
0600
0600
0600
0c00
0c00
0c00
0e00
1800
1800
1800
3000
3000
3000
6000
ENDCHAR
STARTCHAR ~
ENCODING -1 126
SWIDTH 0 0
DWIDTH 10 0
BBX 9 5 1 1
BITMAP
7000
fd80
df80
0700
0000
ENDCHAR
ENDFONT
